<svg id="Capa_1" data-name="Capa 1" xmlns="http://www.w3.org/2000/svg" viewBox="0 0 1920 618.0282"><defs><style>.cls-1{fill:#999;}</style></defs><path class="cls-1" d="M776.1056,471.8948a130.43,130.43,0,0,1-37.7983-5.2567q-17.4242-5.2547-27.61-17.0949-10.1821-11.83-10.188-29.58,0-17.0852,8.8748-27.281,8.8728-10.1821,24.6507-10.19,13.1427,0,20.7072,6.5738a39.7983,39.7983,0,0,1,11.1758,16.1051q3.6034,9.5392,6.5738,19.0667a57.58,57.58,0,0,0,7.56,16.1052q4.5913,6.5757,13.8042,6.5738,19.7213,0,28.2668-15.1193Q830.6588,416.682,837.9,381.179l53.2468-259.6623q5.2518-25.6365,4.9293-40.1012-.339-14.449-12.8182-20.7072-12.4968-6.2367-44.0447-6.2426l4.602-22.3516H1040.37l-4.602,22.3516q-27.6064,0-41.7418,5.9153Q979.881,66.2963,972.99,81.0882q-6.903,14.7939-12.1616,40.4285L911.5246,360.7991q-6.5785,34.8543-19.7213,56.5337Q878.6461,439.03,860.5788,450.86a116.1751,116.1751,0,0,1-39.4427,16.4325A213.77,213.77,0,0,1,776.1056,471.8948Z"/><path class="cls-1" d="M1136.3463,464.0078H980.5473l4.6021-22.3516q26.2854,0,39.7739-4.602,13.4612-4.5885,21.3618-20.7072,7.8909-16.0974,14.4647-49.6327l51.2731-251.7714q5.2548-24.976,3.2888-37.7982-1.9757-12.8183-13.8061-17.75-11.83-4.9274-37.4709-4.9294l4.602-22.3516h147.25l66.3963,323.4283h3.2849L1480.8091,32.1141h138.704l-4.602,22.3516q-23.0179,0-36.1539,4.9294a38.3279,38.3279,0,0,0-20.38,17.75q-7.2422,12.8183-13.1476,37.14l-55.2166,270.18q-7.2422,35.4973,3.2849,46.3438,10.5095,10.8485,44.7033,10.8485l-4.6021,22.3516H1348.02l3.9435-22.3516q24.31,0,37.14-4.602a34.453,34.453,0,0,0,19.394-17.0911q6.564-12.4793,11.1758-35.4992L1477.52,107.7106h-3.285L1255.9875,464.0078h-25.6366l-76.255-355.6386h-3.2889l-53.2448,258.3451q-6.5817,33.5276-5.588,49.6327.9879,16.1148,12.4891,20.7072,11.4972,4.6059,36.485,4.602Z"/><path class="cls-1" d="M1643.8326,471.8948a130.4014,130.4014,0,0,1-37.7983-5.2567q-17.43-5.2547-27.6122-17.0949-10.1821-11.83-10.19-29.58,0-17.0852,8.8767-27.281,8.873-10.1821,24.6507-10.19,13.14,0,20.7072,6.5738a39.7974,39.7974,0,0,1,11.1758,16.1051q3.6065,9.5392,6.5738,19.0667a57.6391,57.6391,0,0,0,7.56,16.1052q4.5883,6.5757,13.8022,6.5738,19.7213,0,28.2707-15.1193,8.534-15.1155,15.774-50.6185l53.2488-259.6623q5.2547-25.6365,4.9293-40.1012-.339-14.449-12.82-20.7072-12.4909-6.2367-44.0408-6.2426l4.602-22.3516H1908.093l-4.602,22.3516q-27.6064,0-41.7418,5.9153-14.145,5.9153-21.0345,20.7072-6.903,14.7939-12.1617,40.4285l-49.3053,239.2824q-6.5757,34.8543-19.7174,56.5337-13.1631,21.697-31.2284,33.5275a116.1422,116.1422,0,0,1-39.4426,16.4325A213.761,213.761,0,0,1,1643.8326,471.8948Z"/><path class="cls-1" d="M708.3688,558.2307c0-19.359,14.7315-33.6171,34.6575-33.6171,9.6327,0,18.32,3.2109,24.1753,9.6327l-4.4384,4.4384c-5.3814-5.4788-11.9922-7.84-19.5479-7.84-15.9591,0-27.9513,11.71-27.9513,27.3862s11.9922,27.3862,27.9513,27.3862c7.5557,0,14.1665-2.3614,19.5479-7.9338l4.4384,4.4423c-5.8549,6.4179-14.5426,9.7262-24.2689,9.7262C723.1,591.8516,708.3688,577.59,708.3688,558.2307Z"/><path class="cls-1" d="M805.0953,558.2307c0-19.2654,14.7335-33.6171,34.7529-33.6171,19.8305,0,34.6575,14.2581,34.6575,33.6171s-14.827,33.6209-34.6575,33.6209C819.8288,591.8516,805.0953,577.4961,805.0953,558.2307Zm62.4216,0c0-15.77-11.8031-27.3862-27.6687-27.3862-15.959,0-27.8577,11.6161-27.8577,27.3862s11.8987,27.3862,27.8577,27.3862C855.7138,585.6169,867.5169,574.0007,867.5169,558.2307Z"/><path class="cls-1" d="M975.6764,525.1786v66.1041h-5.7613l-42.4957-53.6384v53.6384h-6.9888V525.1786h5.7613l42.5893,53.6385V525.1786Z"/><path class="cls-1" d="M1021.1279,583.2555l2.7394-5.3814c4.7228,4.6254,13.1241,8.0272,21.8138,8.0272,12.3721,0,17.7535-5.1943,17.7535-11.71,0-18.1315-40.7013-6.9908-40.7013-31.4466,0-9.7262,7.5558-18.1315,24.3623-18.1315,7.4623,0,15.2051,2.17,20.4929,5.8529l-2.3614,5.5723a34.0293,34.0293,0,0,0-18.1315-5.4749c-12.0876,0-17.469,5.3814-17.469,11.99,0,18.1315,40.7013,7.1778,40.7013,31.26,0,9.7262-7.7428,18.0379-24.6468,18.0379C1035.764,591.8516,1026.0377,588.3563,1021.1279,583.2555Z"/><path class="cls-1" d="M1115.2065,563.047V525.1786h6.9908v37.584c0,15.6765,7.3648,22.8543,20.2084,22.8543,12.9371,0,20.3019-7.1778,20.3019-22.8543v-37.584h6.8V563.047c0,18.981-10.1977,28.8046-27.1017,28.8046S1115.2065,582.028,1115.2065,563.047Z"/><path class="cls-1" d="M1220.8156,525.1786h6.9868v60.06h37.019v6.0438h-44.0058Z"/><path class="cls-1" d="M1313.3863,531.2225H1290.154v-6.0439h53.4514v6.0439h-23.2323v60.06h-6.9868Z"/><path class="cls-1" d="M1378.1888,558.2307c0-19.2654,14.7335-33.6171,34.751-33.6171,19.8344,0,34.6575,14.2581,34.6575,33.6171s-14.8231,33.6209-34.6575,33.6209C1392.9223,591.8516,1378.1888,577.4961,1378.1888,558.2307Zm62.4217,0c0-15.77-11.8032-27.3862-27.6707-27.3862-15.9571,0-27.8577,11.6161-27.8577,27.3862s11.9006,27.3862,27.8577,27.3862C1428.8073,585.6169,1440.6105,574.0007,1440.6105,558.2307Z"/><path class="cls-1" d="M1538.6638,591.2827l-15.1115-21.2449a47.4862,47.4862,0,0,1-5.2878.2805H1500.511v20.9644h-6.9869V525.1786h24.74c16.81,0,27.0082,8.4988,27.0082,22.6634,0,10.3887-5.4749,17.66-15.1076,20.7773l16.148,22.6634Zm-.378-43.4407c0-10.5757-6.9907-16.62-20.2084-16.62H1500.511V564.368h17.5664C1531.2951,564.368,1538.2858,558.2307,1538.2858,547.842Z"/><path class="cls-1" d="M1638.79,585.2389v6.0438h-46.7451V525.1786h45.3267v6.0439h-38.34v23.5167h34.186v5.9464h-34.186v24.5533Z"/><path class="cls-1" d="M1679.1369,583.2555l2.7394-5.3814c4.7229,4.6254,13.1242,8.0272,21.8139,8.0272,12.3721,0,17.7535-5.1943,17.7535-11.71,0-18.1315-40.7013-6.9908-40.7013-31.4466,0-9.7262,7.5557-18.1315,24.3623-18.1315,7.4622,0,15.205,2.17,20.4929,5.8529l-2.3614,5.5723a34.03,34.03,0,0,0-18.1315-5.4749c-12.0876,0-17.469,5.3814-17.469,11.99,0,18.1315,40.7013,7.1778,40.7013,31.26,0,9.7262-7.7428,18.0379-24.6468,18.0379C1693.773,591.8516,1684.0468,588.3563,1679.1369,583.2555Z"/><polygon class="cls-1" points="418.607 284.131 407.187 11.746 543.242 11.753 418.607 284.131"/><polygon class="cls-1" points="307.12 494.783 171.062 494.783 271.129 11.746 407.187 11.746 307.12 494.783"/><polygon class="cls-1" points="579.234 494.789 443.176 494.789 543.242 11.753 679.3 11.753 579.234 494.789"/><polygon class="cls-1" points="420.079 606.282 284.021 606.282 307.118 494.789 443.176 494.789 420.079 606.282"/><polygon class="cls-1" points="147.965 606.275 11.907 606.275 35.004 494.783 171.062 494.783 147.965 606.275"/></svg>